<?xml version="1.0" encoding="UTF-8"?>
<svg id="Livello_2" data-name="Livello 2" xmlns="http://www.w3.org/2000/svg" viewBox="0 0 551.72 240.08">
  <defs>
    <style>
      .cls-1 {
        fill: #1d1d1b;
      }
    </style>
  </defs>
  <g>
    <path class="cls-1" d="M42.02,104.45v-11.02l-2.7-2.81h-12.69l-2.81,2.81v42.12l2.81,2.7h12.69l2.7-2.7v-10.4h23.82v18.82l-13.83,13.83H13.83l-13.83-13.83v-58.97l13.83-13.83h38.17l13.83,13.83v19.45h-23.82ZM51.58,72H14.35L.83,85.42v58.03l13.52,13.52h37.23l13.42-13.52v-17.47h-22.05v10.09l-3.12,3.12h-13.73l-3.12-3.12v-43.16l3.12-3.12h13.73l3.12,3.12v10.61h22.05v-18.1l-13.42-13.42ZM46.8,99.67v-8.42l-5.41-5.41h-16.95l-5.41,5.41v46.49l5.41,5.3h16.95l5.41-5.3v-7.8h14.35v11.65l-11.44,11.44H16.22l-11.44-11.44v-54.29l11.44-11.44h33.49l11.44,11.44v12.38h-14.35Z"/>
    <path class="cls-1" d="M149.97,90.62h-4.37l15.81,47.63h5.2v19.55h-33.28v-19.55h2.91l-1.35-3.95h-16.54l-1.35,3.95h2.81v19.55h-33.18v-19.55h5.2l15.91-47.63h-3.85v-19.45h46.07v19.45ZM104.73,89.79h4.16l-16.43,49.4h-4.99v17.78h31.51v-17.78h-3.22l1.87-5.72h17.89l1.87,5.72h-3.12v17.78h31.51v-17.78h-4.99l-16.43-49.4h4.78v-17.78h-44.41v17.78ZM145.18,85.83h-6.14l19.14,57.2h3.64v9.98h-23.71v-9.98h4.78l-4.47-13.52h-23.61l-4.47,13.52h4.68v9.98h-23.61v-9.98h3.74l19.03-57.2h-5.51v-9.98h36.5v9.98ZM136.03,122.44l-9.46-28.39-9.46,28.39h18.93ZM130.62,118.59h-8.01l3.95-11.96,4.06,11.96ZM129.48,117.76l-2.91-8.32-2.7,8.32h5.62Z"/>
    <path class="cls-1" d="M214.45,115.79v22.46h5.2v19.55h-34.22v-19.55h5.2v-47.63h-5.2v-19.45h27.87l20.07,33.49,20.07-33.49h27.87v19.45h-5.2v47.63h5.2v19.55h-34.22v-19.55h5.2v-22.46l-18.93,31.41-18.93-31.41ZM253.13,112.77v26.42h-5.2v17.78h32.45v-17.78h-5.2v-49.4h5.2v-17.78h-26.42l-20.59,34.42-20.59-34.42h-26.52v17.78h5.2v49.4h-5.2v17.78h32.55v-17.78h-5.2v-26.42l19.76,32.76,19.76-32.76ZM276.53,75.85v9.98h-5.2v57.2h5.2v9.98h-24.75v-9.98h5.2v-43.47l-23.61,39.42-23.71-39.42v43.47h5.2v9.98h-24.65v-9.98h5.2v-57.2h-5.2v-9.98h19.34l23.82,39.73,23.82-39.73h19.34Z"/>
    <path class="cls-1" d="M330.61,124.94v13.31h5.2v19.55h-34.22v-19.55h5.2v-47.63h-5.2v-19.45h53.66l13.83,13.83v26.1l-13.83,13.83h-24.65ZM368.26,85.42l-13.42-13.42h-52.42v17.78h5.2v49.4h-5.2v17.78h32.55v-17.78h-5.2v-15.08h25.06l13.42-13.42v-25.27ZM325.83,120.15v22.88h5.2v9.98h-24.65v-9.98h5.2v-57.2h-5.2v-9.98h46.49l11.44,11.44v21.42l-11.44,11.44h-27.04ZM350.06,104.87v-13.62l-5.41-5.41h-18.82v24.34h18.82l5.41-5.3ZM342.99,89.79l3.12,3.12v10.3l-3.12,3.12h-13.21v-16.54h13.21ZM342.47,105.49l2.81-2.81v-9.26l-2.81-2.81h-11.86v14.87h11.86Z"/>
    <path class="cls-1" d="M446.57,157.8h-38.17l-13.83-13.83v-53.35h-5.2v-19.45h34.22v19.45h-5.2v44.93l2.81,2.7h12.69l2.7-2.7v-44.93h-5.2v-19.45h34.22v19.45h-5.2v53.35l-13.83,13.83ZM464.77,89.79v-17.78h-32.45v17.78h5.2v46.28l-3.12,3.12h-13.73l-3.12-3.12v-46.28h5.2v-17.78h-32.55v17.78h5.2v53.67l13.52,13.52h37.23l13.42-13.52v-53.67h5.2ZM444.29,153.02h-33.49l-11.44-11.44v-55.74h-5.2v-9.98h24.65v9.98h-5.2v51.9l5.41,5.3h16.95l5.41-5.3v-51.9h-5.2v-9.98h24.75v9.98h-5.2v55.74l-11.44,11.44Z"/>
    <path class="cls-1" d="M499.72,124.42l-13.83-13.83v-25.58l13.83-13.83h38.17l13.83,13.83v17.06h-23.82v-8.63l-2.7-2.81h-12.69l-2.81,2.81v8.74l2.81,2.81h25.38l13.83,13.83v25.17l-13.83,13.83h-38.17l-13.83-13.83v-16.64h23.82v8.22l2.81,2.7h12.69l2.7-2.7v-8.32l-2.7-2.81h-25.48ZM528.84,136.07l-3.12,3.12h-13.73l-3.12-3.12v-7.9h-22.15v15.29l13.52,13.52h37.23l13.42-13.52v-24.23l-13.42-13.42h-25.48l-3.12-3.12v-9.78l3.12-3.12h13.73l3.12,3.12v8.32h22.05v-15.81l-13.42-13.42h-37.23l-13.52,13.42v24.75l13.52,13.42h25.48l3.12,3.12v9.36ZM502.11,119.63l-11.44-11.44v-20.9l11.44-11.44h33.49l11.44,11.44v9.98h-14.35v-6.03l-5.41-5.41h-16.95l-5.41,5.41v13.1l5.41,5.3h25.27l11.44,11.44v20.49l-11.44,11.44h-33.49l-11.44-11.44v-9.57h14.25v5.72l5.41,5.3h16.95l5.41-5.3v-12.69l-5.41-5.41h-25.17Z"/>
  </g>
  <g>
    <path class="cls-1" d="M66.98,2.88v17.53h15.93v2.88h-15.93v24.96h-3.07V0h19.46v2.88h-16.38Z"/>
    <path class="cls-1" d="M168.29,0h3.07v30.08c0,4.93,0,9.15-3.26,13.18-3.26,3.71-8.25,5.63-13.12,5.63s-9.86-1.92-13.12-5.63c-3.26-4.03-3.26-8.26-3.26-13.18V0h3.07v29.18c0,4.35,0,8.96,2.5,12.16,2.37,3.07,7.1,4.67,10.81,4.67s8.45-1.6,10.82-4.67c2.5-3.2,2.5-7.81,2.5-12.16V0Z"/>
    <path class="cls-1" d="M238.75,48.25h-3.07V2.88h-12.48V0h28.03v2.88h-12.48v45.37Z"/>
    <path class="cls-1" d="M332.76,0h3.07v30.08c0,4.93,0,9.15-3.26,13.18-3.26,3.71-8.25,5.63-13.12,5.63s-9.85-1.92-13.12-5.63c-3.26-4.03-3.26-8.26-3.26-13.18V0h3.07v29.18c0,4.35,0,8.96,2.5,12.16,2.37,3.07,7.1,4.67,10.81,4.67s8.45-1.6,10.82-4.67c2.5-3.2,2.5-7.81,2.5-12.16V0Z"/>
    <path class="cls-1" d="M416.35,48.25h-3.52l-15.74-22.85h-1.54v22.85h-3.07V0h6.02c3.9,0,7.74.06,11.01,2.43,3.46,2.43,4.86,6.27,4.86,10.37,0,8.38-5.82,12.74-13.82,12.61l15.81,22.85ZM399.45,22.53c3.01,0,6.02-.13,8.45-2.24,2.3-1.86,3.39-4.74,3.39-7.62,0-3.58-1.66-7.17-5.12-8.7-2.56-1.22-5.82-1.09-8.64-1.09h-1.98v19.65h3.9Z"/>
    <path class="cls-1" d="M473.5,2.88v17.53h19.45v2.88h-19.45v22.08h19.97v2.88h-23.04V0h23.04v2.88h-19.97Z"/>
  </g>
  <g>
    <path class="cls-1" d="M62.89,188.61h33.94v14.52h-15.39v5.24h13.51v13.17h-13.51v17.74h-18.55v-50.67Z"/>
    <path class="cls-1" d="M120.29,239.28h-19.49l17.61-50.67h20.36l18.08,50.67h-19.49l-1.68-6.32h-13.91l-1.48,6.32ZM132.45,220.93l-2.15-8.94c-.54-2.15-.87-4.37-1.21-6.52h-.67l-3.36,15.46h7.39Z"/>
    <path class="cls-1" d="M166.59,188.61h21.44c9.81,0,19.82,2.35,19.82,14.04,0,4.44-2.22,8.8-6.65,10.21v.4c5.51,1.95,9,5.98,9,12.03,0,10.42-9.68,13.98-18.55,13.98h-25.07v-50.67ZM185.34,208.1c2.69,0,5.71-.27,5.71-3.76,0-3.76-3.43-3.5-6.12-3.5h-1.28v7.26h1.68ZM183.66,227.18h2.08c3.02,0,7.39-.07,7.39-4.23s-4.7-4.17-7.66-4.17h-1.81v8.4Z"/>
    <path class="cls-1" d="M222.23,188.61h22.24c11.42,0,21.1,4.84,21.1,17.61,0,7.66-2.96,10.89-9.81,13.17v.4c.94.74,2.08,1.55,3.09,3.02l11.02,16.46h-21.23l-8.06-16.26h-.34v16.26h-18.01v-50.67ZM240.24,211.05h1.28c3.02,0,6.05-.47,6.05-4.23s-2.76-4.37-5.91-4.37h-1.41v8.6Z"/>
    <path class="cls-1" d="M279.28,188.61h18.41v50.67h-18.41v-50.67Z"/>
    <path class="cls-1" d="M327.2,239.28h-19.49l17.61-50.67h20.36l18.08,50.67h-19.49l-1.68-6.32h-13.91l-1.48,6.32ZM339.36,220.93l-2.15-8.94c-.54-2.15-.87-4.37-1.21-6.52h-.67l-3.36,15.46h7.39Z"/>
    <path class="cls-1" d="M373.36,188.61h17.67l16.53,28.09h.54c-.74-4.23-1.55-8.6-1.55-12.9v-15.19h17.61v50.67h-17.61l-16.19-26.61h-.54c.61,3.49,1.14,6.79,1.14,10.15v16.46h-17.61v-50.67Z"/>
    <path class="cls-1" d="M492.51,214.08c0,16.26-12.57,26.01-28.02,26.01s-28.02-9.74-28.02-26.01,12.63-26.27,28.02-26.27,28.02,10.35,28.02,26.27ZM455.01,214.35c0,5.78,3.9,9.74,9.47,9.74s9.48-3.96,9.48-9.74c0-5.38-3.63-9.88-9.48-9.88s-9.47,4.5-9.47,9.88Z"/>
  </g>
</svg>